<mxfile host="app.diagrams.net" modified="2023-04-27T17:10:29.544Z" agent="Mozilla/5.0 (Macintosh; Intel Mac OS X 10_15_7) AppleWebKit/605.1.15 (KHTML, like Gecko) Version/16.3 Safari/605.1.15" version="21.2.3" etag="v0bK7ta-iUE4FMjIIMCb" type="github">
  <diagram name="Page-1" id="OFt-B2iAiT57NMBRG7wK">
    <mxGraphModel>
      <root>
        <mxCell id="0" />
        <mxCell id="1" parent="0" />
      </root>
    </mxGraphModel>
  </diagram>
</mxfile>
